<svg id="SvgjsSvg1001" width="288" height="288" xmlns="http://www.w3.org/2000/svg" version="1.1" xmlns:xlink="http://www.w3.org/1999/xlink" xmlns:svgjs="http://svgjs.com/svgjs"><defs id="SvgjsDefs1002"></defs><g id="SvgjsG1008" transform="matrix(1,0,0,1,0,0)"><svg xmlns="http://www.w3.org/2000/svg" width="288" height="288" viewBox="0 0 92 92"><path d="M78 23.5H14c-3.6 0-6.5-2.9-6.5-6.5s2.9-6.5 6.5-6.5h64c3.6 0 6.5 2.9 6.5 6.5s-2.9 6.5-6.5 6.5zM84.5 46c0-3.6-2.9-6.5-6.5-6.5H14c-3.6 0-6.5 2.9-6.5 6.5s2.9 6.5 6.5 6.5h64c3.6 0 6.5-2.9 6.5-6.5zm0 29c0-3.6-2.9-6.5-6.5-6.5H14c-3.6 0-6.5 2.9-6.5 6.5s2.9 6.5 6.5 6.5h64c3.6 0 6.5-2.9 6.5-6.5z" fill="#2dbd3e" class="color000 svgShape"></path></svg></g></svg>